<svg xmlns="http://www.w3.org/2000/svg" width="13.054" height="15.06" viewBox="0 0 13.054 15.06">
  <g id="placeholder" transform="translate(-29.78 0)">
    <path id="Subtraction_4" data-name="Subtraction 4" d="M6.529,15.059a.582.582,0,0,1-.282-.088,19.59,19.59,0,0,1-3.1-2.533C1.061,10.33,0,8.253,0,6.262A6.406,6.406,0,0,1,6.529,0a6.406,6.406,0,0,1,6.527,6.263c0,1.99-1.06,4.067-3.149,6.175a19.425,19.425,0,0,1-3.1,2.533A.575.575,0,0,1,6.529,15.059Zm0-12.192A2.973,2.973,0,1,0,9.5,5.84,2.977,2.977,0,0,0,6.529,2.867Z" transform="translate(29.778 0.001)" fill="#f69321"/>
  </g>
</svg>
