<svg xmlns="http://www.w3.org/2000/svg" xmlns:xlink="http://www.w3.org/1999/xlink" width="304.197" height="187.492" viewBox="0 0 304.197 187.492">
  <defs>
    <linearGradient id="linear-gradient" y1="0.5" x2="1" y2="0.5" gradientUnits="objectBoundingBox">
      <stop offset="0" stop-color="#29abe2"/>
      <stop offset="1" stop-color="#283272"/>
    </linearGradient>
  </defs>
  <g id="Group_1673" data-name="Group 1673" transform="translate(-844 -20)">
    <circle id="Ellipse_161" data-name="Ellipse 161" cx="72" cy="72" r="72" transform="translate(924 20)" fill="#fbfbfb"/>
    <g id="fgbdefe" transform="translate(844 28.022)">
      <g id="Group_1655" data-name="Group 1655" transform="translate(0 139.018)">
        <path id="Path_2626" data-name="Path 2626" d="M70.1,622.2H61.19l-1.476,3.448H55.536l7.994-19.5h4.2l-5.153,12.565h6.1l-2.757-6.684,3.145-2.7,6.657,16.318H71.548Z" transform="translate(-55.536 -605.909)" fill="#2a3b8f"/>
        <path id="Path_2627" data-name="Path 2627" d="M104.2,606.153,92.662,621.109v4.54H88.6v-19.5h4.067v8.552l6.545-8.552ZM95.5,620.8l1.586-4.37,7.1,9.215H99.208Z" transform="translate(-67.402 -605.909)" fill="#2a3b8f"/>
        <path id="Path_2628" data-name="Path 2628" d="M119.6,606.153v19.5h-4.064v-19.5Z" transform="translate(-77.072 -605.909)" fill="#2a3b8f"/>
        <path id="Path_2629" data-name="Path 2629" d="M131.936,610.335l3.926,2.147v6.683a6.135,6.135,0,0,1-.515,2.5,6.812,6.812,0,0,1-1.393,2.064,6.474,6.474,0,0,1-2.073,1.405,6.4,6.4,0,0,1-2.562.513h-4.4v-3.869h4.4a2.465,2.465,0,0,0,1.029-.211,2.6,2.6,0,0,0,.835-.571,2.447,2.447,0,0,0,.559-.832,2.6,2.6,0,0,0,.194-1v-8.83Zm3.926-4.182v3.625h-7.575l-1.92-3.625Z" transform="translate(-80.441 -605.909)" fill="#2a3b8f"/>
        <path id="Path_2630" data-name="Path 2630" d="M178.875,606.153l.029,3.262H169.74l-.025,13.008h9.16v3.225H165.814v-19.5h13.061Zm-2.31,11.727h-4.347l-1.808-3.618h6.155Z" transform="translate(-95.12 -605.909)" fill="#2a3b8f"/>
        <path id="Path_2631" data-name="Path 2631" d="M188.145,625.649l5.289-7.625,3.51,1.782-4.064,5.844h-4.735Zm11.475-9.772,6.8,9.772h-4.767l-4.371-6.343-2.367-3.428-6.711-9.725h4.734l4.344,7.107,4.317-7.107h4.765Z" transform="translate(-103.136 -605.909)" fill="#2a3b8f"/>
        <path id="Path_2632" data-name="Path 2632" d="M230.071,606.7a7.323,7.323,0,0,1,2.2,1.476,6.842,6.842,0,0,1,1.49,2.188,6.769,6.769,0,0,1-1.49,7.518,7.268,7.268,0,0,1-2.2,1.466,6.7,6.7,0,0,1-2.671.545h-2.175l-2.115-3.9H227.4a2.872,2.872,0,0,0,1.154-.238,2.619,2.619,0,0,0,.935-.666,3.389,3.389,0,0,0,.627-1.033,3.594,3.594,0,0,0,.235-1.322,3.1,3.1,0,0,0-.235-1.184,3.757,3.757,0,0,0-.627-1.016,3.107,3.107,0,0,0-.935-.722,2.476,2.476,0,0,0-1.154-.281h-4.932v16.124H218.6v-19.5h8.8A6.654,6.654,0,0,1,230.071,606.7Z" transform="translate(-114.067 -605.909)" fill="#2a3b8f"/>
        <path id="Path_2633" data-name="Path 2633" d="M258.768,606.153l.029,3.262h-9.164l-.029,13.008h9.164v3.225H245.705v-19.5h13.063Zm-2.31,11.727h-4.347l-1.809-3.618h6.156Z" transform="translate(-123.797 -605.909)" fill="#2a3b8f"/>
        <path id="Path_2634" data-name="Path 2634" d="M281.262,606.923a9.738,9.738,0,0,1,5.2,5.2,9.732,9.732,0,0,1,0,7.572,9.74,9.74,0,0,1-5.2,5.193,9.485,9.485,0,0,1-3.785.762h-1.615l-1.837-3.391h3.452a5.669,5.669,0,0,0,4.137-1.8,6.239,6.239,0,0,0,1.251-2.016,6.867,6.867,0,0,0,.462-2.534,6.772,6.772,0,0,0-.462-2.508,6.218,6.218,0,0,0-1.251-2.018,5.719,5.719,0,0,0-1.867-1.336,5.379,5.379,0,0,0-2.269-.492h-4.455v16.1h-3.9v-19.5h8.356A9.462,9.462,0,0,1,281.262,606.923Z" transform="translate(-132.202 -605.909)" fill="#2a3b8f"/>
        <path id="Path_2635" data-name="Path 2635" d="M304.035,606.153v19.5h-4.067v-19.5Z" transform="translate(-143.274 -605.909)" fill="#2a3b8f"/>
        <path id="Path_2636" data-name="Path 2636" d="M318.664,606.153v19.5h-4.01v-16.1h-5.738v-3.4Zm.585,0h5.15v3.4h-3.453Z" transform="translate(-146.486 -605.909)" fill="#2a3b8f"/>
        <path id="Path_2637" data-name="Path 2637" d="M339.742,606.153v19.5h-4.068v-19.5Z" transform="translate(-156.091 -605.909)" fill="#2a3b8f"/>
        <path id="Path_2638" data-name="Path 2638" d="M354.344,605.773a9.379,9.379,0,0,1,3.845.789,9.944,9.944,0,0,1,3.09,2.144,9.806,9.806,0,0,1,2.046,3.179,10.209,10.209,0,0,1,.74,3.885,10.506,10.506,0,0,1-.529,3.342,9.91,9.91,0,0,1-1.5,2.865,9.669,9.669,0,0,1-2.326,2.188,9.21,9.21,0,0,1-2.968,1.3l-1.949-3.317a4.957,4.957,0,0,0,2.131-.626,5.9,5.9,0,0,0,1.657-1.393,6.444,6.444,0,0,0,1.087-1.977,7.225,7.225,0,0,0,.39-2.379,7.15,7.15,0,0,0-.43-2.478,6.5,6.5,0,0,0-1.185-2.037,5.456,5.456,0,0,0-1.8-1.361,5.469,5.469,0,0,0-4.6,0,5.618,5.618,0,0,0-1.81,1.361,6.291,6.291,0,0,0-1.195,2.037,7.294,7.294,0,0,0,0,4.953,6.278,6.278,0,0,0,1.195,2.033,5.609,5.609,0,0,0,1.81,1.365,5.245,5.245,0,0,0,2.3.5v3.623a9.5,9.5,0,0,1-6.931-2.927,9.835,9.835,0,0,1-2.049-3.19,10.606,10.606,0,0,1,0-7.767,9.738,9.738,0,0,1,2.049-3.179,9.848,9.848,0,0,1,3.089-2.144A9.384,9.384,0,0,1,354.344,605.773Z" transform="translate(-159.304 -605.773)" fill="#2a3b8f"/>
        <path id="Path_2639" data-name="Path 2639" d="M381.621,606.153l12.561,18.1v1.392h-4.067l-8.495-12.25v12.25h-4.064v-19.5Zm8.495,0h4.067v14.6l-4.067-2.924Z" transform="translate(-171.125 -605.909)" fill="#2a3b8f"/>
        <path id="Path_2640" data-name="Path 2640" d="M415.206,614.125a23.677,23.677,0,0,1,2.464.809,7.931,7.931,0,0,1,1.952,1.085,4.65,4.65,0,0,1,1.28,1.531,4.55,4.55,0,0,1,.461,2.119v.085a5.508,5.508,0,0,1-.545,2.448,5.688,5.688,0,0,1-1.5,1.908,6.984,6.984,0,0,1-2.258,1.225,8.844,8.844,0,0,1-2.824.433,10.309,10.309,0,0,1-2.717-.349,10.76,10.76,0,0,1-2.353-.912,9.052,9.052,0,0,1-1.851-1.286,5.572,5.572,0,0,1-1.209-1.494l3.257-2.06a11.419,11.419,0,0,0,1.057,1.042,6.384,6.384,0,0,0,1.113.78,5,5,0,0,0,1.28.487,6.423,6.423,0,0,0,1.533.168,5.479,5.479,0,0,0,1.073-.11,3.59,3.59,0,0,0,.988-.362,2.377,2.377,0,0,0,.722-.626,1.639,1.639,0,0,0,.085-1.691,2.264,2.264,0,0,0-.669-.71,5.736,5.736,0,0,0-1.283-.671,16.152,16.152,0,0,0-2.03-.63,20.63,20.63,0,0,1-2.7-.82,7.732,7.732,0,0,1-2.035-1.118,4.477,4.477,0,0,1-1.281-1.576,4.968,4.968,0,0,1-.446-2.177,5.73,5.73,0,0,1,.518-2.471,5.214,5.214,0,0,1,1.434-1.855,6.568,6.568,0,0,1,2.159-1.156,8.53,8.53,0,0,1,2.655-.4,9.753,9.753,0,0,1,4.82,1.184,8.152,8.152,0,0,1,1.657,1.167,10.516,10.516,0,0,1,1.184,1.264l-3.2,2.062a7.939,7.939,0,0,0-2.267-1.6,5.628,5.628,0,0,0-2.243-.464,3.772,3.772,0,0,0-1.242.184,2.769,2.769,0,0,0-.846.448,1.852,1.852,0,0,0-.515.6,1.342,1.342,0,0,0-.184.637,1.569,1.569,0,0,0,.294.96,2.758,2.758,0,0,0,.862.74,7.191,7.191,0,0,0,1.42.611Q414.123,613.845,415.206,614.125Z" transform="translate(-181.371 -605.773)" fill="#2a3b8f"/>
        <path id="Path_2641" data-name="Path 2641" d="M453.515,625.649v-19.5h3.9v19.5Zm4.482-3.9h8.579v3.9h-6.407Z" transform="translate(-198.39 -605.909)" fill="#2a3b8f"/>
        <path id="Path_2642" data-name="Path 2642" d="M478.248,606.153v19.5h-4.01v-16.1H468.5v-3.4Zm.587,0h5.151v3.4h-3.453Z" transform="translate(-203.77 -605.909)" fill="#2a3b8f"/>
        <path id="Path_2643" data-name="Path 2643" d="M507.4,606.923a9.759,9.759,0,0,1,5.195,5.2,9.739,9.739,0,0,1,0,7.572,9.915,9.915,0,0,1-2.089,3.1,9.814,9.814,0,0,1-3.106,2.091,9.5,9.5,0,0,1-3.787.762H502l-1.835-3.391h3.453a5.585,5.585,0,0,0,2.271-.477,5.646,5.646,0,0,0,1.863-1.324,6.212,6.212,0,0,0,1.254-2.016,6.865,6.865,0,0,0,.46-2.534,6.769,6.769,0,0,0-.46-2.508,6.193,6.193,0,0,0-1.254-2.018,5.744,5.744,0,0,0-1.863-1.336,5.393,5.393,0,0,0-2.271-.492h-4.457v16.1h-3.9v-19.5h8.354A9.475,9.475,0,0,1,507.4,606.923Z" transform="translate(-213.376 -605.909)" fill="#2a3b8f"/>
        <path id="Path_2644" data-name="Path 2644" d="M525.44,630.1a2.115,2.115,0,0,1,1.559.639,2.03,2.03,0,0,1,.614,1.56,2.092,2.092,0,0,1-.656,1.56,2.166,2.166,0,0,1-1.574.643,2.194,2.194,0,0,1-1.529-.672,2.058,2.058,0,0,1-.613-1.586,2.1,2.1,0,0,1,.638-1.533A2.049,2.049,0,0,1,525.44,630.1Z" transform="translate(-223.417 -614.504)" fill="#2a3b8f"/>
      </g>
      <g id="Group_1659" data-name="Group 1659" transform="translate(7.989 167.452)">
        <g id="Group_1656" data-name="Group 1656" transform="translate(62.705 0)">
          <path id="Path_2645" data-name="Path 2645" d="M165.814,650.577h1.131v4.738H172.7v-4.738h1.13v11.3H172.7v-5.457h-5.754v5.457h-1.131Z" transform="translate(-165.814 -650.29)" fill="#1a1a1a" stroke="#000" stroke-miterlimit="10" stroke-width="0.3"/>
          <path id="Path_2646" data-name="Path 2646" d="M191.57,650.577l5.269,11.3h-1.219l-1.777-3.719h-4.866l-1.76,3.719h-1.26l5.338-11.3Zm-.14,2.4-1.939,4.088h3.868Z" transform="translate(-173.045 -650.29)" fill="#1a1a1a" stroke="#000" stroke-miterlimit="10" stroke-width="0.3"/>
          <path id="Path_2647" data-name="Path 2647" d="M210.564,650.577h2.249a13.122,13.122,0,0,1,2.612.163,2.933,2.933,0,0,1,1.581.98,2.8,2.8,0,0,1,.616,1.863,2.856,2.856,0,0,1-.6,1.864,2.937,2.937,0,0,1-1.65.99,14.887,14.887,0,0,1-2.872.181h-.808v5.257h-1.13v-11.3Zm1.129,1.1v3.838l1.912.023a4.982,4.982,0,0,0,1.7-.212,1.718,1.718,0,0,0,.845-.682,1.883,1.883,0,0,0,.306-1.056,1.845,1.845,0,0,0-.306-1.033,1.676,1.676,0,0,0-.809-.674,4.906,4.906,0,0,0-1.649-.2Z" transform="translate(-181.877 -650.29)" fill="#1a1a1a" stroke="#000" stroke-miterlimit="10" stroke-width="0.3"/>
          <path id="Path_2648" data-name="Path 2648" d="M229.99,650.577h2.252a13.139,13.139,0,0,1,2.612.163,2.951,2.951,0,0,1,1.584.98,2.816,2.816,0,0,1,.613,1.863,2.869,2.869,0,0,1-.6,1.864,2.962,2.962,0,0,1-1.655.99,14.855,14.855,0,0,1-2.872.181h-.806v5.257H229.99Zm1.13,1.1v3.838l1.914.023a5.009,5.009,0,0,0,1.7-.212,1.771,1.771,0,0,0,.847-.682,1.918,1.918,0,0,0,.305-1.056,1.886,1.886,0,0,0-.305-1.033,1.737,1.737,0,0,0-.814-.674,4.9,4.9,0,0,0-1.648-.2Z" transform="translate(-188.85 -650.29)" fill="#1a1a1a" stroke="#000" stroke-miterlimit="10" stroke-width="0.3"/>
          <path id="Path_2649" data-name="Path 2649" d="M248.046,650.577h1.3l2.89,4.66,2.846-4.66h1.307l-3.58,5.9v5.4H251.7v-5.4Z" transform="translate(-195.331 -650.29)" fill="#1a1a1a" stroke="#000" stroke-miterlimit="10" stroke-width="0.3"/>
          <path id="Path_2650" data-name="Path 2650" d="M280.548,650.577h1.127v4.738h5.752v-4.738h1.133v11.3h-1.133v-5.457h-5.752v5.457h-1.127v-11.3Z" transform="translate(-206.998 -650.29)" fill="#1a1a1a" stroke="#000" stroke-miterlimit="10" stroke-width="0.3"/>
          <path id="Path_2651" data-name="Path 2651" d="M307.339,650.129a5.869,5.869,0,0,1,4.3,1.715A5.94,5.94,0,0,1,307.429,662a5.783,5.783,0,0,1-4.241-1.721,5.643,5.643,0,0,1-1.729-4.16,5.975,5.975,0,0,1,.79-3.017,5.808,5.808,0,0,1,5.091-2.969Zm.051,1.1a4.668,4.668,0,0,0-2.378.652,4.743,4.743,0,0,0-1.756,1.763,4.924,4.924,0,0,0-.63,2.469,4.75,4.75,0,0,0,4.765,4.789,4.818,4.818,0,0,0,2.434-.641,4.532,4.532,0,0,0,1.744-1.741,4.885,4.885,0,0,0,.626-2.463,4.762,4.762,0,0,0-.626-2.432,4.686,4.686,0,0,0-1.763-1.745A4.8,4.8,0,0,0,307.39,651.225Z" transform="translate(-214.504 -650.129)" fill="#1a1a1a" stroke="#000" stroke-miterlimit="10" stroke-width="0.3"/>
          <path id="Path_2652" data-name="Path 2652" d="M328.47,650.577H329.6v10.206h4.35v1.092H328.47Z" transform="translate(-224.199 -650.29)" fill="#1a1a1a" stroke="#000" stroke-miterlimit="10" stroke-width="0.3"/>
          <path id="Path_2653" data-name="Path 2653" d="M344.459,650.577h1.13v11.3h-1.13Z" transform="translate(-229.938 -650.29)" fill="#1a1a1a" stroke="#000" stroke-miterlimit="10" stroke-width="0.3"/>
          <path id="Path_2654" data-name="Path 2654" d="M355.173,661.874v-11.3h2.342a12.028,12.028,0,0,1,3.678.4,4.895,4.895,0,0,1,2.569,2,6.072,6.072,0,0,1,.925,3.385,5.947,5.947,0,0,1-.732,2.985,4.629,4.629,0,0,1-1.908,1.9,7.118,7.118,0,0,1-3.282.62h-3.593Zm1.078-1.071h1.312a12.2,12.2,0,0,0,3.244-.29,3.782,3.782,0,0,0,2.008-1.493,4.6,4.6,0,0,0,.729-2.634,4.837,4.837,0,0,0-.792-2.8,3.979,3.979,0,0,0-2.2-1.586,13.2,13.2,0,0,0-3.5-.328h-.8Z" transform="translate(-233.784 -650.289)" fill="#1a1a1a" stroke="#000" stroke-miterlimit="10" stroke-width="0.3"/>
          <path id="Path_2655" data-name="Path 2655" d="M382.4,650.577l5.272,11.3h-1.223l-1.777-3.719H379.8l-1.76,3.719h-1.258l5.334-11.3Zm-.145,2.4-1.933,4.088h3.864Z" transform="translate(-241.541 -650.29)" fill="#1a1a1a" stroke="#000" stroke-miterlimit="10" stroke-width="0.3"/>
          <path id="Path_2656" data-name="Path 2656" d="M400.008,650.577h1.3l2.887,4.66,2.849-4.66h1.3l-3.578,5.9v5.4h-1.113v-5.4Z" transform="translate(-249.878 -650.29)" fill="#1a1a1a" stroke="#000" stroke-miterlimit="10" stroke-width="0.3"/>
          <path id="Path_2657" data-name="Path 2657" d="M419.008,659.61l.96-.581q1.014,1.869,2.342,1.87a2.3,2.3,0,0,0,1.071-.265,1.947,1.947,0,0,0,.761-.713,1.847,1.847,0,0,0,.261-.941,1.917,1.917,0,0,0-.388-1.115,9.308,9.308,0,0,0-1.931-1.811,10,10,0,0,1-1.763-1.545,2.822,2.822,0,0,1-.6-1.728,2.613,2.613,0,0,1,.356-1.349,2.5,2.5,0,0,1,.992-.953,2.859,2.859,0,0,1,1.394-.35,3.012,3.012,0,0,1,1.494.392,5.168,5.168,0,0,1,1.469,1.459l-.921.7a4.364,4.364,0,0,0-1.088-1.115,1.857,1.857,0,0,0-.978-.269,1.534,1.534,0,0,0-1.118.414,1.347,1.347,0,0,0-.437,1.022,1.681,1.681,0,0,0,.156.714,2.62,2.62,0,0,0,.562.753c.146.145.631.523,1.455,1.125a8.22,8.22,0,0,1,2.012,1.93,3.109,3.109,0,0,1,.544,1.7,2.879,2.879,0,0,1-.926,2.134,3.16,3.16,0,0,1-2.275.906,3.3,3.3,0,0,1-1.866-.552A4.945,4.945,0,0,1,419.008,659.61Z" transform="translate(-256.697 -650.129)" fill="#1a1a1a" stroke="#000" stroke-miterlimit="10" stroke-width="0.3"/>
        </g>
        <g id="Group_1657" data-name="Group 1657" transform="translate(0 4.783)">
          <path id="Path_2658" data-name="Path 2658" d="M68,658.42v-.83h51.957v.83Z" transform="translate(-67.998 -657.59)" fill="#1a1a1a"/>
        </g>
        <g id="Group_1658" data-name="Group 1658" transform="translate(241.034 4.783)">
          <path id="Path_2659" data-name="Path 2659" d="M443.995,658.42v-.83H491.18v.83Z" transform="translate(-443.995 -657.59)" fill="#1a1a1a"/>
        </g>
      </g>
      <g id="Group_1672" data-name="Group 1672" transform="translate(88.151)">
        <g id="Group_1669" data-name="Group 1669" transform="translate(17.167 18.947)">
          <path id="Path_2660" data-name="Path 2660" d="M257.111,436.7c-3.062-2.567-9.569-4.08-15.478,2.874a19.556,19.556,0,0,1,2.478-.717l.729-1.278,1.356.9c.575-.073,1.179-.126,1.787-.143.547-.443,1.117-.874,1.708-1.287.253.425.5.851.742,1.281a15.864,15.864,0,0,1,6.455,1.846c.313-.122.627-.24.95-.35.163.391.317.782.465,1.179a12.176,12.176,0,0,1,2.306,1.976A10.1,10.1,0,0,0,257.111,436.7Zm3.5,6.284c.015.038.031.058.047.053A.682.682,0,0,1,260.609,442.979Z" transform="translate(-227.653 -424.24)" fill="#088c45"/>
          <g id="Group_1662" data-name="Group 1662" transform="translate(5.067 12.527)">
            <path id="Path_2661" data-name="Path 2661" d="M255.455,472.934c-5.832-10.891-7.34-27.107-7.34-27.107l-.825.356s1,16.252,6.061,27.341Z" transform="translate(-234.751 -440.817)" fill="#754d29"/>
            <g id="Group_1660" data-name="Group 1660" transform="translate(12.191)">
              <path id="Path_2662" data-name="Path 2662" d="M247.091,446.974a10.334,10.334,0,0,1,1.753-.081l.574-.482.33.56a11.3,11.3,0,0,1,1.321.176l.5-.438.629.712c.407.11.8.233,1.169.352l.615-.662.634,1.145a33.859,33.859,0,0,1,3.2,1.438C253,440.438,247.091,446.974,247.091,446.974Z" transform="translate(-246.871 -440.424)" fill="#03a550"/>
              <path id="Path_2663" data-name="Path 2663" d="M248.4,440.388a6.553,6.553,0,0,0-1.627,4.651,8.468,8.468,0,0,1,1.375-1.625c.049-.28.1-.562.169-.846.243.031.487.065.726.11a12.022,12.022,0,0,1,4.36-2.1c.113-.317.229-.633.354-.951.48.193.947.4,1.4.624a15.065,15.065,0,0,1,1.747-.167l.6-.531.464.521a17.638,17.638,0,0,1,1.908.144C254.679,436.393,250.23,438.271,248.4,440.388Zm-1.628,4.651a.414.414,0,0,0-.026.043C246.759,445.083,246.768,445.065,246.773,445.04Z" transform="translate(-246.747 -438.012)" fill="#03a550"/>
            </g>
            <g id="Group_1661" data-name="Group 1661" transform="translate(0 3.192)">
              <path id="Path_2664" data-name="Path 2664" d="M236.621,443.066c-2.768-.446-7.382.975-8.891,7.25A15.069,15.069,0,0,1,229.07,449l.053-1.027,1.147.057c.345-.249.71-.5,1.09-.721.2-.464.428-.922.671-1.385.3.167.591.331.881.506a12.006,12.006,0,0,1,4.685-1.205c.16-.183.322-.367.488-.549.229.177.454.356.674.537a8.407,8.407,0,0,1,2.1.368A6.5,6.5,0,0,0,236.621,443.066Zm4.236,2.516c.021.012.042.018.048.011C240.888,445.589,240.875,445.584,240.857,445.582Z" transform="translate(-227.73 -442.99)" fill="#03a550"/>
              <path id="Path_2665" data-name="Path 2665" d="M237.16,455s.853-1.531,1.881-2.964l-.108-1.306.88.211c.235-.286.48-.587.741-.892l.035-1.009.885.03a9.26,9.26,0,0,1,.91-.787l-.032-.65.748.081a9.9,9.9,0,0,1,1.5-.9S236.063,444.633,237.16,455Z" transform="translate(-231.08 -444.296)" fill="#03a550"/>
            </g>
          </g>
          <path id="Path_2666" data-name="Path 2666" d="M266.732,473.082c-6.308-16.006-.315-28.254-.315-28.254l-1.18.367s-6.7,12.209-1.465,28.37Z" transform="translate(-234.883 -427.931)" fill="#754d29"/>
          <g id="Group_1663" data-name="Group 1663" transform="translate(0 23.231)">
            <path id="Path_2667" data-name="Path 2667" d="M249.639,477.682l.165-.07c-9.25-9.992-8.132-20.511-8.132-20.511l-.833.612s-1.559,9.959,5.936,20.012Z" transform="translate(-227.32 -455.568)" fill="#754d29"/>
            <path id="Path_2668" data-name="Path 2668" d="M238.739,457.413a11.7,11.7,0,0,0-.9,1.853l-.791.4.449.614a17.891,17.891,0,0,0-.823,4.271l-1,.359.947,1.22a40.24,40.24,0,0,0,.051,4.125c-7.736-9.51,2.067-12.839,2.067-12.839" transform="translate(-224.805 -455.68)" fill="#03a550"/>
            <path id="Path_2669" data-name="Path 2669" d="M234.136,457.163a19.192,19.192,0,0,0-2.532.783l-1.005-.255-.262.792a28.7,28.7,0,0,0-4.868,2.684l-1.128-.427-.472,1.594c-2.12,1.515-4.044,3.19-4.044,3.19,3.419-12.707,14.311-8.36,14.311-8.36" transform="translate(-219.825 -455.333)" fill="#03a550"/>
            <path id="Path_2670" data-name="Path 2670" d="M253.05,458.63a15.7,15.7,0,0,0-1.9-.712l-.5-.607-.524.328a23.44,23.44,0,0,0-4.209-.7l-.492-.759-1.023.69c-1.989-.11-3.935-.037-3.935-.037,7.93-5.668,12.586,1.795,12.586,1.795" transform="translate(-227.233 -454.71)" fill="#03a550"/>
            <path id="Path_2671" data-name="Path 2671" d="M240.835,457.907a11,11,0,0,1,1.537,1.177l.832.005-.122.7a16.648,16.648,0,0,1,2.492,3.248l.992-.122-.285,1.424a37.7,37.7,0,0,1,1.692,3.491c2.512-11.252-7.138-9.927-7.138-9.927" transform="translate(-227.367 -455.84)" fill="#03a550"/>
          </g>
          <path id="Path_2672" data-name="Path 2672" d="M267.882,445.015a13.631,13.631,0,0,1,2.1,1.3l1.025-.137-.018.957a14.48,14.48,0,0,1,1.413,1.274l.9-.143.223,1.378c.394.464.762.923,1.115,1.368l1.2-.326-.09,1.926c1.476,2.085,2.71,4.334,2.71,4.334C279.509,441.665,267.882,445.015,267.882,445.015Z" transform="translate(-237.075 -427.887)" fill="#03a550"/>
          <path id="Path_2673" data-name="Path 2673" d="M272.213,438.733a8.954,8.954,0,0,0-5.262,4.448,11.148,11.148,0,0,1,2.781-.917c.264-.3.532-.605.813-.906.262.231.521.473.772.71a15.736,15.736,0,0,1,6.611.894c.358-.3.725-.6,1.1-.889.422.622.815,1.255,1.186,1.894a19.114,19.114,0,0,1,2.166,1.189l1.081-.18.166,1.017a22.545,22.545,0,0,1,2.123,1.7C282.445,438.806,275.889,437.573,272.213,438.733Zm-5.262,4.448c-.018.011-.037.016-.057.027C266.906,443.219,266.927,443.2,266.951,443.18Z" transform="translate(-236.72 -425.612)" fill="#03a550"/>
          <path id="Path_2674" data-name="Path 2674" d="M256.141,454.706s1.126-2.009,2.464-3.869l-.092-1.765,1.1.339c.3-.374.624-.761.964-1.156l.074-1.356,1.115.1a12.638,12.638,0,0,1,1.171-1.005l-.022-.876.939.164a11.9,11.9,0,0,1,1.92-1.117S255.113,440.676,256.141,454.706Z" transform="translate(-232.835 -427.555)" fill="#048d46"/>
          <g id="Group_1664" data-name="Group 1664" transform="translate(21.676)">
            <path id="Path_2675" data-name="Path 2675" d="M265.831,419.686a2.177,2.177,0,0,0-.278-.12,3.994,3.994,0,0,0-.778-.175,4.067,4.067,0,0,0-1.134,0,3.738,3.738,0,0,0-.642.138,4.262,4.262,0,0,0-.641.256,4.1,4.1,0,0,0-.581.385c-.09.078-.176.152-.26.231a2.783,2.783,0,0,0-.217.259c-.065.089-.138.171-.193.26s-.092.187-.138.276-.085.176-.122.263-.046.178-.069.262a2.74,2.74,0,0,0-.081.451c-.01.134,0,.255,0,.352a2.632,2.632,0,0,0,.021.3,2.647,2.647,0,0,0,.162-.257c.048-.08.1-.176.16-.285s.157-.214.233-.34c.042-.055.085-.12.131-.185s.1-.113.159-.176.108-.122.162-.187.126-.108.194-.168.122-.12.192-.171.151-.1.222-.152a5.352,5.352,0,0,1,.46-.285c.167-.08.337-.153.506-.225s.346-.141.522-.187c.174-.062.344-.108.513-.154s.32-.088.469-.129c.3-.073.56-.133.737-.172l.29-.068" transform="translate(-256.17 -418.787)" fill="#374850"/>
            <path id="Path_2676" data-name="Path 2676" d="M253.638,418.594l.276.117c.17.069.41.167.7.288.137.064.287.133.444.2s.32.144.478.229.324.175.487.27.308.2.462.306a4.265,4.265,0,0,1,.414.355c.062.062.126.12.191.185s.108.132.164.2.113.133.163.2l.128.209c.046.072.09.141.133.2s.069.139.1.205c.058.137.136.252.179.372s.083.221.115.31c.066.173.115.276.115.276a2.418,2.418,0,0,0,.07-.294c.019-.093.042-.21.056-.343a2.524,2.524,0,0,0-.013-.464c-.007-.085-.014-.172-.024-.269s-.05-.179-.078-.278-.06-.2-.094-.3-.1-.184-.15-.28a2.773,2.773,0,0,0-.172-.292c-.071-.09-.145-.182-.221-.265a3.445,3.445,0,0,0-.513-.478,4.643,4.643,0,0,0-.589-.355,3.677,3.677,0,0,0-.611-.237,4.123,4.123,0,0,0-1.119-.188,3.921,3.921,0,0,0-.8.055,1.837,1.837,0,0,0-.292.067" transform="translate(-253.638 -418.47)" fill="#374850"/>
          </g>
          <g id="Group_1665" data-name="Group 1665" transform="translate(26.378 3.761)">
            <path id="Path_2677" data-name="Path 2677" d="M272.229,424.339a1.364,1.364,0,0,0-.287.018,3.255,3.255,0,0,0-.726.181,3.966,3.966,0,0,0-.954.483,3.459,3.459,0,0,0-.48.39,4.163,4.163,0,0,0-.428.483,3.065,3.065,0,0,0-.327.575c-.044.1-.083.2-.122.3a2.317,2.317,0,0,0-.071.313c-.02.1-.046.2-.054.3s0,.2,0,.3.008.181.009.271c.018.085.039.169.057.247a2.169,2.169,0,0,0,.121.415,2.877,2.877,0,0,0,.147.3c.09.16.148.244.148.244s.014-.108.026-.285c0-.087.014-.19.014-.306s.041-.25.053-.385c.01-.066.018-.142.029-.214s.042-.142.062-.217.035-.146.053-.221c.033-.076.062-.153.094-.225a2.392,2.392,0,0,1,.092-.227c.038-.071.078-.144.117-.221a4.733,4.733,0,0,1,.271-.433c.106-.14.214-.276.33-.406s.232-.26.359-.38.244-.236.362-.344.239-.215.343-.308c.226-.191.415-.347.547-.458s.217-.179.217-.179" transform="translate(-263.775 -424.338)" fill="#374850"/>
            <path id="Path_2678" data-name="Path 2678" d="M260.973,429.181s.1-.006.28-.021.416-.031.712-.049c.143-.011.3-.017.462-.024s.331-.012.5-.007.344.013.521.02.346.037.517.062c.168.048.345.062.5.124.079.026.159.048.242.074s.145.072.221.1.147.064.219.094.133.085.2.122.133.072.195.113.113.085.168.128c.1.094.224.161.309.238s.158.154.226.213c.129.12.217.185.217.185a2.375,2.375,0,0,0-.065-.276c-.025-.09-.055-.2-.1-.321a2.366,2.366,0,0,0-.207-.378c-.042-.069-.088-.144-.133-.218s-.12-.131-.183-.2-.135-.129-.205-.2-.165-.117-.249-.181-.172-.119-.266-.167-.2-.09-.3-.133a3.005,3.005,0,0,0-.633-.181,3.661,3.661,0,0,0-.649-.048,3.209,3.209,0,0,0-.613.058,3.831,3.831,0,0,0-1.022.319,3.4,3.4,0,0,0-.644.38,1.637,1.637,0,0,0-.219.185" transform="translate(-260.973 -425.738)" fill="#374850"/>
          </g>
          <g id="Group_1666" data-name="Group 1666" transform="translate(7.745 11.572)">
            <path id="Path_2679" data-name="Path 2679" d="M241.005,437.7a1.232,1.232,0,0,0-.206-.094,2.884,2.884,0,0,0-.579-.15,3.154,3.154,0,0,0-.853-.023,3.041,3.041,0,0,0-.485.1,3.193,3.193,0,0,0-.483.175,2.408,2.408,0,0,0-.445.283l-.2.165c-.06.059-.113.127-.169.187s-.106.128-.151.194-.076.138-.11.205-.065.133-.1.2-.038.129-.056.194a1.715,1.715,0,0,0-.073.336c-.005.1-.005.192-.005.265a1.9,1.9,0,0,0,.01.223s.049-.065.127-.186c.036-.062.082-.133.124-.21s.122-.164.183-.252l.1-.138c.04-.038.082-.081.126-.129s.081-.09.122-.137.1-.076.149-.12.094-.089.147-.124a1.849,1.849,0,0,0,.167-.112c.108-.083.241-.127.356-.2.126-.054.253-.11.384-.157s.262-.1.4-.129.26-.078.385-.112.244-.054.358-.083c.229-.051.422-.087.554-.115l.22-.046" transform="translate(-233.768 -436.842)" fill="#374850"/>
            <path id="Path_2680" data-name="Path 2680" d="M231.906,436.6s.074.03.207.094.3.131.517.229c.1.047.215.1.333.161s.234.11.354.183.236.138.358.213.232.158.343.242a2.772,2.772,0,0,1,.3.273c.045.043.094.094.14.14s.076.106.12.156.079.1.119.148.063.106.09.163.066.1.1.152.048.1.069.156c.04.1.1.191.124.281s.058.167.083.234c.044.131.08.209.08.209s.025-.073.058-.217c.014-.069.034-.158.051-.26a1.847,1.847,0,0,0,0-.348c0-.064-.008-.128-.011-.2s-.037-.138-.055-.211-.042-.147-.063-.224-.071-.142-.106-.22-.076-.149-.124-.217-.1-.14-.163-.205a2.316,2.316,0,0,0-.372-.368,3.134,3.134,0,0,0-.438-.28,2.9,2.9,0,0,0-.452-.189,2.943,2.943,0,0,0-.838-.167,2.642,2.642,0,0,0-.6.026,1.064,1.064,0,0,0-.225.047" transform="translate(-231.906 -436.521)" fill="#374850"/>
          </g>
          <g id="Group_1667" data-name="Group 1667" transform="translate(12.833 7.978)">
            <path id="Path_2681" data-name="Path 2681" d="M245.557,431.657a.626.626,0,0,0-.128-.055,1.683,1.683,0,0,0-.365-.1,2.02,2.02,0,0,0-.538-.013,2.4,2.4,0,0,0-.3.059,1.968,1.968,0,0,0-.3.113,1.424,1.424,0,0,0-.28.175l-.127.1c-.036.04-.07.078-.1.12s-.066.078-.094.12-.048.09-.071.131a1.307,1.307,0,0,1-.059.121c-.013.042-.024.081-.037.124a1.245,1.245,0,0,0-.044.208c-.006.066,0,.122,0,.172a1.01,1.01,0,0,0,.007.138s.033-.046.078-.117c.023-.038.053-.083.078-.132s.078-.1.115-.158c.021-.027.042-.056.063-.087a1.067,1.067,0,0,0,.078-.081c.026-.03.051-.054.079-.085s.06-.047.09-.076.061-.055.1-.079a1.118,1.118,0,0,0,.106-.071,2.053,2.053,0,0,1,.224-.124c.078-.035.157-.069.239-.1s.164-.058.248-.076.164-.05.241-.069l.228-.055c.14-.03.262-.053.346-.073s.138-.03.138-.03" transform="translate(-241.013 -431.118)" fill="#374850"/>
            <path id="Path_2682" data-name="Path 2682" d="M239.844,430.969a1.008,1.008,0,0,1,.129.055c.078.032.19.085.327.144.065.031.135.069.207.1s.149.066.223.11.151.094.226.138.143.1.214.149.137.108.19.167a.522.522,0,0,0,.09.09c.028.033.046.069.071.1s.051.066.074.1.04.067.059.1l.058.089c.016.04.031.069.044.1.026.064.062.126.079.181s.035.1.049.146a1.176,1.176,0,0,0,.053.132s.015-.046.034-.138a1.081,1.081,0,0,0,.032-.164,1.255,1.255,0,0,0,0-.216c-.005-.04-.008-.082-.011-.124s-.018-.087-.031-.135-.027-.092-.04-.137-.046-.093-.067-.141a1.117,1.117,0,0,0-.079-.137c-.03-.044-.066-.087-.1-.131a1.714,1.714,0,0,0-.235-.231,2.046,2.046,0,0,0-.274-.175,1.48,1.48,0,0,0-.285-.12,2.044,2.044,0,0,0-.526-.1,1.966,1.966,0,0,0-.375.018.614.614,0,0,0-.138.032" transform="translate(-239.844 -430.916)" fill="#374850"/>
          </g>
          <g id="Group_1668" data-name="Group 1668" transform="translate(35.857 8.6)">
            <path id="Path_2683" data-name="Path 2683" d="M284.861,433.065a2.2,2.2,0,0,0-.208-.1,2.953,2.953,0,0,0-.579-.146,2.809,2.809,0,0,0-.853-.017,2.308,2.308,0,0,0-.483.089,2.9,2.9,0,0,0-.485.176,2.437,2.437,0,0,0-.446.285c-.071.049-.137.108-.2.163s-.113.124-.167.186-.108.131-.153.191c-.037.076-.073.142-.106.209s-.065.131-.1.193-.038.132-.055.2a1.72,1.72,0,0,0-.072.331c-.009.106-.006.2-.006.269a2.128,2.128,0,0,0,.01.226s.051-.069.124-.187c.036-.061.086-.133.126-.213s.124-.156.183-.25c.032-.044.066-.092.1-.134s.081-.085.124-.133.081-.092.124-.139.1-.078.147-.118a1.778,1.778,0,0,1,.151-.126c.059-.036.113-.071.168-.11a2.7,2.7,0,0,1,.356-.2c.127-.054.253-.113.385-.161s.26-.1.395-.129.258-.078.383-.108l.361-.085c.229-.048.422-.088.556-.113s.221-.047.221-.047" transform="translate(-277.621 -432.206)" fill="#374850"/>
            <path id="Path_2684" data-name="Path 2684" d="M275.759,431.96s.074.035.206.094.306.135.521.23l.329.158c.115.06.235.117.355.186s.238.142.358.212.23.157.34.241a2.883,2.883,0,0,1,.306.272c.043.051.09.1.138.147a1.058,1.058,0,0,1,.117.153c.041.049.083.1.12.151l.094.158c.032.053.062.1.1.154s.045.1.067.154c.04.1.1.195.125.283s.057.168.08.234c.048.131.083.211.083.211a2.207,2.207,0,0,0,.056-.222c.016-.069.035-.154.051-.256a2,2,0,0,0,0-.347c-.005-.066-.011-.133-.013-.2-.019-.067-.035-.138-.053-.209s-.043-.149-.065-.224-.072-.145-.106-.221a2.135,2.135,0,0,0-.126-.219c-.053-.064-.1-.138-.16-.205a2.749,2.749,0,0,0-.375-.368,3.235,3.235,0,0,0-.435-.278,2.667,2.667,0,0,0-.452-.191,3.173,3.173,0,0,0-.838-.164,2.85,2.85,0,0,0-.6.024,2.253,2.253,0,0,0-.224.045" transform="translate(-275.759 -431.885)" fill="#374850"/>
          </g>
        </g>
        <path id="Path_2685" data-name="Path 2685" d="M318.618,474.1s-5.417,4.984-18.9,7.364-33.563,2.867-51.757,3.5-42.168,7.629-48.094,11.469c-1.023-6.041-.888-6.778-.888-6.778a191.536,191.536,0,0,1,54.609-8.409C283.908,481.1,301.362,481.3,318.618,474.1Z" transform="translate(-195.172 -419.492)" fill="#333"/>
        <g id="Group_1670" data-name="Group 1670" transform="translate(68.723 18.064)">
          <path id="Path_2686" data-name="Path 2686" d="M314.886,417.092l.416,8.952.469,1.678a2.231,2.231,0,0,1,.239-.031l.158-2.158-1.282-8.442Zm1.283,8.441.327,2.145h.149l.306-1.714-.312-6.762-.47,6.331Zm.782.431.083,1.739c.078.006.159.019.24.031l.631-2.071.632-8.513-1.586,8.814Zm.953-.3-.155,2.153c.046.012.1.024.145.034l.678-1.6,1.2-6.659-1.869,6.069Zm.67.591-.306,1.7c.078.023.155.051.23.081l1.076-1.867,2.508-8.158-3.508,8.24Zm1-.082-.632,2.05c.046.023.1.043.144.069l1-1.387,2.65-6.23-3.164,5.5Zm.515.731-.664,1.573.211.128,1.449-1.564,4.255-7.4L320.09,426.9Zm1,.137-1.059,1.844c.04.033.085.063.126.1l1.272-1.118,3.97-5.477-4.31,4.651Zm.34.825-.987,1.366c.064.058.126.121.189.18l1.731-1.181,5.8-6.264-6.734,5.9Zm.933.365-1.419,1.531c.039.044.074.092.111.136l1.464-.791,5.089-4.457-5.245,3.58Zm.156.876L321.27,430.2l.144.223,1.933-.76,7.046-4.812-7.879,4.255Zm.832.556-1.708,1.172c.026.047.053.106.078.162l1.579-.436,5.955-3.218-5.9,2.321Zm-.05.9-1.439.777c.036.085.064.17.094.26l2.037-.306,7.938-3.129-8.63,2.4Zm.692.731-1.912.749c.013.06.026.12.038.184l1.623-.076,6.525-1.814-6.273.958Zm-.251.856-1.563.434c.014.089.021.185.03.276l2.046.153,8.434-1.275-8.946.412Zm.512.862-2.026.308c0,.065,0,.128,0,.188l1.593.287,6.763-.312-6.326-.47Zm-.437.783-1.616.072c-.008.094-.021.19-.037.284l1.964.6,8.5.627-8.816-1.587Zm.312.96-2.052-.152c-.015.056-.03.12-.046.176l1.5.64,6.659,1.2-6.06-1.861Zm-.6.664-1.608-.289c-.028.087-.06.173-.1.258l1.786,1.032,8.158,2.506-8.24-3.508Zm.082,1-1.979-.611c-.028.055-.055.106-.082.162l1.33.961,6.23,2.653-5.5-3.164Zm-.732.512-1.52-.644q-.071.114-.148.223l1.525,1.417,7.394,4.262-7.251-5.258Zm-.143,1-1.811-1.043c-.037.042-.076.088-.113.128l1.1,1.258,5.483,3.969-4.661-4.312Zm-.822.343-1.36-.985c-.063.058-.126.117-.19.178l1.194,1.746,6.257,5.8-5.9-6.734Zm-.356.939-1.56-1.444c-.046.033-.09.064-.133.1l.809,1.49,4.458,5.092-3.575-5.237Zm-.883.146-1.122-1.283c-.076.048-.146.089-.219.131l.784,1.99,4.813,7.046-4.255-7.884Zm-.558.837-1.214-1.777c-.046.024-.094.044-.143.065l.464,1.657,3.215,5.957-2.322-5.9Zm-.893-.056-.82-1.515c-.078.027-.154.053-.237.078l.326,2.129,3.127,7.944-2.4-8.636Zm-.731.692-.792-2.01c-.049.009-.1.02-.147.027l.082,1.732,1.811,6.527-.955-6.276Zm-.856-.251-.467-1.671c-.081.009-.161.016-.241.021l-.16,2.162,1.281,8.439-.414-8.951Zm-.867.512-.326-2.143c-.049,0-.1,0-.148,0l-.308,1.718.315,6.759.467-6.33Zm-.782-.429-.08-1.74c-.081-.011-.158-.018-.239-.027l-.634,2.066-.629,8.51,1.583-8.809Zm-.954.3.156-2.151c-.048-.015-.1-.024-.149-.037l-.678,1.593-1.2,6.661,1.869-6.066Zm-.671-.595.308-1.7c-.076-.03-.156-.051-.23-.076l-1.079,1.86-2.507,8.154,3.508-8.239Zm-1,.084.632-2.048c-.048-.024-.1-.042-.142-.071l-1.006,1.386-2.651,6.234,3.167-5.5Zm-.515-.732.672-1.568c-.073-.042-.149-.088-.214-.133l-1.451,1.565-4.262,7.392,5.255-7.255Zm-.994-.137,1.057-1.839c-.043-.032-.083-.069-.126-.106l-1.271,1.117-3.972,5.485,4.312-4.657Zm-.34-.828.987-1.361c-.065-.059-.126-.12-.187-.186l-1.739,1.186-5.8,6.264,6.739-5.9Zm-.938-.361L312,436.852c-.039-.042-.074-.085-.11-.129l-1.469.79-5.087,4.458,5.24-3.582Zm-.154-.876,1.251-1.1c-.05-.069-.1-.15-.147-.226l-1.93.76-7.048,4.813,7.873-4.251Zm-.825-.562,1.7-1.163c-.026-.058-.053-.112-.078-.165l-1.58.438-5.956,3.216,5.91-2.326Zm.046-.89,1.437-.774c-.033-.09-.063-.177-.093-.264l-2.034.308-7.942,3.122,8.632-2.392Zm-.689-.73,1.91-.754c-.014-.06-.027-.12-.04-.183l-1.619.076-6.525,1.812,6.275-.951Zm.25-.862,1.562-.43c-.015-.092-.023-.185-.03-.283l-2.046-.152-8.436,1.28,8.95-.415Zm-.513-.864,2.026-.306c0-.062,0-.127.005-.19l-1.593-.285-6.763.313,6.325.468Zm.438-.781,1.616-.073c.009-.1.021-.189.034-.281l-1.958-.6-8.508-.63,8.816,1.587Zm-.307-.957,2.044.152c.015-.062.032-.12.049-.182l-1.494-.633-6.664-1.2,6.064,1.866Zm.6-.664,1.6.285c.03-.085.062-.17.1-.257L309.33,430.2l-8.157-2.507,8.243,3.51Zm-.087-1,1.978.608c.03-.054.055-.1.085-.16l-1.336-.963-6.225-2.653,5.5,3.168Zm.726-.515,1.526.646c.046-.078.1-.152.145-.224l-1.529-1.415-7.393-4.264,7.252,5.257Zm.142-.993,1.817,1.043c.037-.042.076-.087.11-.129l-1.1-1.262-5.482-3.968,4.655,4.316Zm.828-.348,1.362.987c.063-.057.126-.122.189-.176l-1.194-1.744-6.259-5.8,5.9,6.731Zm.356-.933,1.561,1.439c.043-.032.085-.064.129-.092l-.806-1.494-4.46-5.094,3.576,5.241Zm.883-.147,1.124,1.281c.07-.043.143-.087.218-.127l-.784-1.989-4.816-7.05,4.258,7.885Zm.558-.835,1.212,1.773a1,1,0,0,1,.143-.062l-.463-1.658-3.216-5.959,2.324,5.907Zm.891.053.824,1.517c.076-.028.153-.05.232-.079l-.327-2.132-3.122-7.94,2.393,8.635Zm.729-.694.793,2.015c.051-.013.1-.018.15-.027l-.083-1.733-1.809-6.529.949,6.275Zm0,0" transform="translate(-300.249 -417.092)" fill="#ffd32b" fill-rule="evenodd"/>
          <path id="Path_2687" data-name="Path 2687" d="M327.894,439.471a5.334,5.334,0,1,1-5.335-5.217,5.278,5.278,0,0,1,5.335,5.217Zm0,0" transform="translate(-306.344 -423.252)" fill="#f69321" fill-rule="evenodd"/>
        </g>
        <path id="Path_2688" data-name="Path 2688" d="M265.35,469.051,272.439,462l3.24,2.509,3.632-1.948,4.316-5.356,4.729,3.241,2.278-1.69,13.335,11.579-5.787-3.912.883,1.977-3.214-3.412,0,3.3-5.278-8.886-1.533,1.746,2.077,4.425-7.484-7.6-3.237,5.88-3.448,1.4,1.826,3.2-5.023-4.275.512,3.522-1.912-4.629-2.667,7.548.2-4.53Z" transform="translate(-218.999 -413.428)" fill="#231f20"/>
        <path id="Path_2689" data-name="Path 2689" d="M324.483,471l5.652-6.262,2.842,1.966,2.971-1.805,3.4-4.7,4.131,2.515,1.839-1.526,11.754,9.159-5.052-3.035.833,1.623-2.862-2.726.152,2.78-4.846-7.248-1.212,1.54,1.951,3.635-6.65-6.062-2.46,5.1-2.842,1.336,1.685,2.611-4.421-3.375.587,2.945-1.819-3.808-1.9,6.473-.035-3.825Z" transform="translate(-240.225 -414.5)" fill="#231f20"/>
        <g id="Group_1671" data-name="Group 1671">
          <path id="Path_2690" data-name="Path 2690" d="M193.046,452.861a63.949,63.949,0,0,1,63.946-63.947h0a63.948,63.948,0,0,1,63.948,63.947h0a63.948,63.948,0,0,1-63.948,63.946h0a63.949,63.949,0,0,1-63.946-63.946Zm26.111-37.837a53.331,53.331,0,0,0-15.672,37.837h0A53.3,53.3,0,0,0,219.162,490.7h0a53.294,53.294,0,0,0,37.83,15.673h0A53.3,53.3,0,0,0,294.826,490.7h0A53.28,53.28,0,0,0,310.5,452.861h0a53.3,53.3,0,0,0-15.673-37.837h0a53.317,53.317,0,0,0-37.834-15.666h0a53.337,53.337,0,0,0-37.836,15.666Z" transform="translate(-193.046 -388.914)" fill="url(#linear-gradient)"/>
        </g>
        <path id="Path_2691" data-name="Path 2691" d="M259.579,559.586c2.217.508,4.262.878,6.175,1.135a47.591,47.591,0,0,0,13.489-.011c5.307-.76,15.6-1.135,19.042,2.38-4.738-1.145-8.282,2.473-18.471,2C266.647,564.48,258.414,559.322,259.579,559.586Z" transform="translate(-216.889 -450.173)" fill="#29abe2"/>
        <path id="Path_2692" data-name="Path 2692" d="M234.907,541.017s3.378,4.25,15.438,3.271,41.864-5.894,51.277,3.676c-4.457-1.59-15.33-3.511-29.527.165S243.518,551.216,234.907,541.017Z" transform="translate(-208.072 -443.511)" fill="#29abe2"/>
        <path id="Path_2693" data-name="Path 2693" d="M295.558,554.081s6.19,1.9,11.468,1.115,10.51-1.4,12.658.643c-1.546-2.276-3.9-4.273-11.628-3.374S301.261,553.594,295.558,554.081Z" transform="translate(-229.842 -447.541)" fill="#29abe2"/>
        <path id="Path_2694" data-name="Path 2694" d="M294.708,510.252a88.144,88.144,0,0,0-1.84-19.958s9.909,3.45,18.323,16.059c.143-.033.285-.066.427-.1-8.829-19.912-23.748-24.168-23.748-24.168,4.151,21.375.728,29.615.728,29.615Z" transform="translate(-227.083 -422.357)" fill="#2a3b8f"/>
        <path id="Path_2695" data-name="Path 2695" d="M254.295,530.6s5.594-.742,24.182-1.4,24.592,1.642,24.592,1.642l8.889-16.778Z" transform="translate(-215.031 -433.837)" fill="#1d76bb"/>
      </g>
    </g>
  </g>
</svg>
